<mxfile host="app.diagrams.net" modified="2023-12-07T10:54:32.316Z" agent="Mozilla/5.0 (Windows NT 10.0; Win64; x64) AppleWebKit/537.36 (KHTML, like Gecko) Chrome/117.0.0.0 Safari/537.36" etag="kOTWpy7I82oLgtOqEa1w" version="22.1.7" type="github">
  <diagram name="Page-1" id="W3egZTGLbJBQ-ZvbNnxN">
    <mxGraphModel dx="794" dy="456" grid="1" gridSize="10" guides="1" tooltips="1" connect="1" arrows="1" fold="1" page="1" pageScale="1" pageWidth="850" pageHeight="1100" math="0" shadow="0">
      <root>
        <mxCell id="0" />
        <mxCell id="1" parent="0" />
        <mxCell id="aS6O0uANGYLPyMVkly2j-1" value="" style="group;strokeColor=default;" parent="1" vertex="1" connectable="0">
          <mxGeometry x="301" y="236" width="45" height="217" as="geometry" />
        </mxCell>
        <mxCell id="aS6O0uANGYLPyMVkly2j-2" value="" style="image;aspect=fixed;perimeter=ellipsePerimeter;html=1;align=center;shadow=0;dashed=0;spacingTop=3;image=img/lib/active_directory/web_server.svg;strokeColor=default;" parent="aS6O0uANGYLPyMVkly2j-1" vertex="1">
          <mxGeometry x="2" y="89" width="40" height="50" as="geometry" />
        </mxCell>
        <mxCell id="aS6O0uANGYLPyMVkly2j-3" value="" style="image;aspect=fixed;perimeter=ellipsePerimeter;html=1;align=center;shadow=0;dashed=0;spacingTop=3;image=img/lib/active_directory/web_server.svg;strokeColor=default;" parent="aS6O0uANGYLPyMVkly2j-1" vertex="1">
          <mxGeometry width="40" height="50" as="geometry" />
        </mxCell>
        <mxCell id="aS6O0uANGYLPyMVkly2j-4" value="" style="image;aspect=fixed;perimeter=ellipsePerimeter;html=1;align=center;shadow=0;dashed=0;spacingTop=3;image=img/lib/active_directory/web_server.svg;strokeColor=default;" parent="aS6O0uANGYLPyMVkly2j-1" vertex="1">
          <mxGeometry x="5" y="167" width="40" height="50" as="geometry" />
        </mxCell>
        <mxCell id="aS6O0uANGYLPyMVkly2j-5" value="" style="group;strokeColor=default;" parent="1" vertex="1" connectable="0">
          <mxGeometry x="470" y="234" width="28" height="219" as="geometry" />
        </mxCell>
        <mxCell id="aS6O0uANGYLPyMVkly2j-6" value="" style="image;aspect=fixed;perimeter=ellipsePerimeter;html=1;align=center;shadow=0;dashed=0;spacingTop=3;image=img/lib/active_directory/generic_server.svg;" parent="aS6O0uANGYLPyMVkly2j-5" vertex="1">
          <mxGeometry y="91" width="28.000000000000004" height="50" as="geometry" />
        </mxCell>
        <mxCell id="aS6O0uANGYLPyMVkly2j-7" value="" style="image;aspect=fixed;perimeter=ellipsePerimeter;html=1;align=center;shadow=0;dashed=0;spacingTop=3;image=img/lib/active_directory/generic_server.svg;" parent="aS6O0uANGYLPyMVkly2j-5" vertex="1">
          <mxGeometry y="169" width="28.000000000000004" height="50" as="geometry" />
        </mxCell>
        <mxCell id="aS6O0uANGYLPyMVkly2j-8" value="" style="image;aspect=fixed;perimeter=ellipsePerimeter;html=1;align=center;shadow=0;dashed=0;spacingTop=3;image=img/lib/active_directory/generic_server.svg;" parent="aS6O0uANGYLPyMVkly2j-5" vertex="1">
          <mxGeometry width="28.000000000000004" height="50" as="geometry" />
        </mxCell>
        <mxCell id="aS6O0uANGYLPyMVkly2j-13" value="Web Stateful Replication" style="text;html=1;strokeColor=none;fillColor=none;align=center;verticalAlign=middle;whiteSpace=wrap;rounded=0;fontSize=11;fontFamily=Helvetica;fontColor=default;" parent="1" vertex="1">
          <mxGeometry x="419" y="150" width="181" height="25" as="geometry" />
        </mxCell>
        <mxCell id="aS6O0uANGYLPyMVkly2j-17" value="Stateful" style="text;html=1;strokeColor=none;fillColor=none;align=center;verticalAlign=middle;whiteSpace=wrap;rounded=0;fontSize=11;fontFamily=Helvetica;fontColor=default;" parent="1" vertex="1">
          <mxGeometry x="297" y="192" width="60" height="30" as="geometry" />
        </mxCell>
        <mxCell id="aS6O0uANGYLPyMVkly2j-18" style="edgeStyle=orthogonalEdgeStyle;shape=connector;rounded=0;orthogonalLoop=1;jettySize=auto;html=1;entryX=0;entryY=0.25;entryDx=0;entryDy=0;labelBackgroundColor=default;strokeColor=default;align=center;verticalAlign=middle;fontFamily=Helvetica;fontSize=11;fontColor=default;endArrow=classic;" parent="1" target="aS6O0uANGYLPyMVkly2j-2" edge="1">
          <mxGeometry relative="1" as="geometry">
            <mxPoint x="235" y="339" as="sourcePoint" />
          </mxGeometry>
        </mxCell>
        <mxCell id="aS6O0uANGYLPyMVkly2j-19" value="" style="edgeStyle=orthogonalEdgeStyle;shape=connector;rounded=0;orthogonalLoop=1;jettySize=auto;html=1;labelBackgroundColor=default;strokeColor=default;align=center;verticalAlign=middle;fontFamily=Helvetica;fontSize=11;fontColor=default;endArrow=classic;" parent="1" source="aS6O0uANGYLPyMVkly2j-20" target="aS6O0uANGYLPyMVkly2j-25" edge="1">
          <mxGeometry relative="1" as="geometry" />
        </mxCell>
        <mxCell id="aS6O0uANGYLPyMVkly2j-20" value="Users" style="shape=umlActor;verticalLabelPosition=bottom;verticalAlign=top;html=1;outlineConnect=0;fontFamily=Helvetica;fontSize=11;fontColor=default;" parent="1" vertex="1">
          <mxGeometry x="119" y="309" width="30" height="56" as="geometry" />
        </mxCell>
        <mxCell id="aS6O0uANGYLPyMVkly2j-21" value="" style="endArrow=classic;html=1;rounded=0;labelBackgroundColor=default;strokeColor=default;align=center;verticalAlign=middle;fontFamily=Helvetica;fontSize=11;fontColor=default;shape=connector;entryX=0;entryY=0.25;entryDx=0;entryDy=0;exitX=1.022;exitY=-0.04;exitDx=0;exitDy=0;exitPerimeter=0;" parent="1" source="aS6O0uANGYLPyMVkly2j-25" edge="1">
          <mxGeometry width="50" height="50" relative="1" as="geometry">
            <mxPoint x="149" y="326.66666666666663" as="sourcePoint" />
            <mxPoint x="302.96953885063454" y="247.18172331038068" as="targetPoint" />
          </mxGeometry>
        </mxCell>
        <mxCell id="aS6O0uANGYLPyMVkly2j-22" value="" style="endArrow=classic;html=1;rounded=0;labelBackgroundColor=default;strokeColor=default;align=center;verticalAlign=middle;fontFamily=Helvetica;fontSize=11;fontColor=default;shape=connector;exitX=0.809;exitY=1.027;exitDx=0;exitDy=0;exitPerimeter=0;" parent="1" source="aS6O0uANGYLPyMVkly2j-25" edge="1">
          <mxGeometry width="50" height="50" relative="1" as="geometry">
            <mxPoint x="150" y="355" as="sourcePoint" />
            <mxPoint x="305" y="425" as="targetPoint" />
          </mxGeometry>
        </mxCell>
        <mxCell id="aS6O0uANGYLPyMVkly2j-25" value="" style="verticalLabelPosition=bottom;html=1;verticalAlign=top;align=center;strokeColor=none;fillColor=#00BEF2;shape=mxgraph.azure.load_balancer_generic;pointerEvents=1;fontFamily=Helvetica;fontSize=11;fontColor=default;" parent="1" vertex="1">
          <mxGeometry x="192" y="312" width="37.5" height="50" as="geometry" />
        </mxCell>
        <mxCell id="aS6O0uANGYLPyMVkly2j-26" value="" style="edgeStyle=orthogonalEdgeStyle;shape=connector;rounded=0;orthogonalLoop=1;jettySize=auto;html=1;labelBackgroundColor=default;strokeColor=default;align=center;verticalAlign=middle;fontFamily=Helvetica;fontSize=11;fontColor=default;endArrow=classic;" parent="1" source="aS6O0uANGYLPyMVkly2j-27" target="aS6O0uANGYLPyMVkly2j-6" edge="1">
          <mxGeometry relative="1" as="geometry" />
        </mxCell>
        <mxCell id="aS6O0uANGYLPyMVkly2j-27" value="" style="verticalLabelPosition=bottom;html=1;verticalAlign=top;align=center;strokeColor=none;fillColor=#00BEF2;shape=mxgraph.azure.load_balancer_generic;pointerEvents=1;fontFamily=Helvetica;fontSize=11;fontColor=default;" parent="1" vertex="1">
          <mxGeometry x="388" y="311" width="37.5" height="50" as="geometry" />
        </mxCell>
        <mxCell id="aS6O0uANGYLPyMVkly2j-28" value="" style="edgeStyle=orthogonalEdgeStyle;shape=connector;rounded=0;orthogonalLoop=1;jettySize=auto;html=1;labelBackgroundColor=default;strokeColor=default;align=center;verticalAlign=middle;fontFamily=Helvetica;fontSize=11;fontColor=default;endArrow=classic;" parent="1" source="aS6O0uANGYLPyMVkly2j-2" target="aS6O0uANGYLPyMVkly2j-27" edge="1">
          <mxGeometry relative="1" as="geometry" />
        </mxCell>
        <mxCell id="aS6O0uANGYLPyMVkly2j-29" value="" style="endArrow=classic;html=1;rounded=0;labelBackgroundColor=default;strokeColor=default;align=center;verticalAlign=middle;fontFamily=Helvetica;fontSize=11;fontColor=default;shape=connector;" parent="1" target="aS6O0uANGYLPyMVkly2j-27" edge="1">
          <mxGeometry width="50" height="50" relative="1" as="geometry">
            <mxPoint x="348" y="247" as="sourcePoint" />
            <mxPoint x="398" y="197" as="targetPoint" />
          </mxGeometry>
        </mxCell>
        <mxCell id="aS6O0uANGYLPyMVkly2j-30" value="" style="endArrow=classic;html=1;rounded=0;labelBackgroundColor=default;strokeColor=default;align=center;verticalAlign=middle;fontFamily=Helvetica;fontSize=11;fontColor=default;shape=connector;entryX=0.24;entryY=0.893;entryDx=0;entryDy=0;entryPerimeter=0;" parent="1" target="aS6O0uANGYLPyMVkly2j-27" edge="1">
          <mxGeometry width="50" height="50" relative="1" as="geometry">
            <mxPoint x="347" y="433" as="sourcePoint" />
            <mxPoint x="397" y="383" as="targetPoint" />
          </mxGeometry>
        </mxCell>
        <mxCell id="aS6O0uANGYLPyMVkly2j-31" value="" style="endArrow=classic;html=1;rounded=0;labelBackgroundColor=default;strokeColor=default;align=center;verticalAlign=middle;fontFamily=Helvetica;fontSize=11;fontColor=default;shape=connector;exitX=0.5;exitY=0;exitDx=0;exitDy=0;exitPerimeter=0;" parent="1" source="aS6O0uANGYLPyMVkly2j-27" edge="1">
          <mxGeometry width="50" height="50" relative="1" as="geometry">
            <mxPoint x="421" y="298" as="sourcePoint" />
            <mxPoint x="471" y="248" as="targetPoint" />
          </mxGeometry>
        </mxCell>
        <mxCell id="aS6O0uANGYLPyMVkly2j-32" value="" style="endArrow=classic;html=1;rounded=0;labelBackgroundColor=default;strokeColor=default;align=center;verticalAlign=middle;fontFamily=Helvetica;fontSize=11;fontColor=default;shape=connector;exitX=0.702;exitY=0.96;exitDx=0;exitDy=0;exitPerimeter=0;entryX=0;entryY=0.5;entryDx=0;entryDy=0;" parent="1" source="aS6O0uANGYLPyMVkly2j-27" target="aS6O0uANGYLPyMVkly2j-7" edge="1">
          <mxGeometry width="50" height="50" relative="1" as="geometry">
            <mxPoint x="425" y="421" as="sourcePoint" />
            <mxPoint x="475" y="371" as="targetPoint" />
          </mxGeometry>
        </mxCell>
        <mxCell id="aS6O0uANGYLPyMVkly2j-35" value="" style="endArrow=classic;html=1;rounded=0;labelBackgroundColor=default;strokeColor=default;align=center;verticalAlign=middle;fontFamily=Helvetica;fontSize=11;fontColor=default;shape=connector;exitX=1;exitY=0.25;exitDx=0;exitDy=0;entryX=0;entryY=0.5;entryDx=0;entryDy=0;" parent="1" source="aS6O0uANGYLPyMVkly2j-8" target="aS6O0uANGYLPyMVkly2j-11" edge="1">
          <mxGeometry width="50" height="50" relative="1" as="geometry">
            <mxPoint x="511" y="355" as="sourcePoint" />
            <mxPoint x="544.3499999999999" y="317" as="targetPoint" />
          </mxGeometry>
        </mxCell>
        <mxCell id="aS6O0uANGYLPyMVkly2j-36" value="" style="endArrow=classic;html=1;rounded=0;labelBackgroundColor=default;strokeColor=default;align=center;verticalAlign=middle;fontFamily=Helvetica;fontSize=11;fontColor=default;shape=connector;entryX=0;entryY=0.75;entryDx=0;entryDy=0;" parent="1" target="aS6O0uANGYLPyMVkly2j-11" edge="1">
          <mxGeometry width="50" height="50" relative="1" as="geometry">
            <mxPoint x="494" y="429" as="sourcePoint" />
            <mxPoint x="553.6500000000001" y="361.65" as="targetPoint" />
          </mxGeometry>
        </mxCell>
        <mxCell id="aS6O0uANGYLPyMVkly2j-40" value="When Low Latency Is Required" style="text;html=1;strokeColor=none;fillColor=none;align=center;verticalAlign=middle;whiteSpace=wrap;rounded=0;fontSize=11;fontFamily=Helvetica;fontColor=default;" parent="1" vertex="1">
          <mxGeometry x="59" y="156" width="176" height="30" as="geometry" />
        </mxCell>
        <mxCell id="aS6O0uANGYLPyMVkly2j-41" value="Sticky Session/Session Affinity" style="text;html=1;strokeColor=none;fillColor=none;align=center;verticalAlign=middle;whiteSpace=wrap;rounded=0;fontSize=11;fontFamily=Helvetica;fontColor=default;" parent="1" vertex="1">
          <mxGeometry x="71" y="178" width="185" height="30" as="geometry" />
        </mxCell>
        <mxCell id="aS6O0uANGYLPyMVkly2j-46" value="Sessions Occupy Memory" style="text;html=1;strokeColor=none;fillColor=none;align=center;verticalAlign=middle;whiteSpace=wrap;rounded=0;fontSize=11;fontFamily=Helvetica;fontColor=default;" parent="1" vertex="1">
          <mxGeometry x="60" y="201" width="185" height="30" as="geometry" />
        </mxCell>
        <mxCell id="aS6O0uANGYLPyMVkly2j-47" value="" style="endArrow=classic;html=1;rounded=0;entryX=0.25;entryY=1;entryDx=0;entryDy=0;" parent="1" target="aS6O0uANGYLPyMVkly2j-13" edge="1">
          <mxGeometry width="50" height="50" relative="1" as="geometry">
            <mxPoint x="348" y="239" as="sourcePoint" />
            <mxPoint x="398" y="189" as="targetPoint" />
          </mxGeometry>
        </mxCell>
        <mxCell id="aS6O0uANGYLPyMVkly2j-48" value="Session Clustering for Reliability&amp;nbsp;" style="text;html=1;strokeColor=none;fillColor=none;align=center;verticalAlign=middle;whiteSpace=wrap;rounded=0;fontSize=11;fontFamily=Helvetica;fontColor=default;" parent="1" vertex="1">
          <mxGeometry x="77" y="224" width="185" height="30" as="geometry" />
        </mxCell>
        <mxCell id="ot8v-GuDp5VyXGt-_cL2-1" value="" style="endArrow=classic;html=1;rounded=0;labelBackgroundColor=default;strokeColor=default;align=center;verticalAlign=middle;fontFamily=Helvetica;fontSize=11;fontColor=default;shape=connector;entryX=0;entryY=0.75;entryDx=0;entryDy=0;" edge="1" parent="1" target="aS6O0uANGYLPyMVkly2j-11">
          <mxGeometry width="50" height="50" relative="1" as="geometry">
            <mxPoint x="500" y="350" as="sourcePoint" />
            <mxPoint x="637" y="302" as="targetPoint" />
          </mxGeometry>
        </mxCell>
        <mxCell id="ot8v-GuDp5VyXGt-_cL2-2" value="" style="group;strokeColor=default;" vertex="1" connectable="0" parent="1">
          <mxGeometry x="625" y="256" width="42" height="147" as="geometry" />
        </mxCell>
        <mxCell id="aS6O0uANGYLPyMVkly2j-10" value="" style="image;aspect=fixed;perimeter=ellipsePerimeter;html=1;align=center;shadow=0;dashed=0;spacingTop=3;image=img/lib/active_directory/database_server.svg;" parent="ot8v-GuDp5VyXGt-_cL2-2" vertex="1">
          <mxGeometry x="1" y="97" width="41" height="50" as="geometry" />
        </mxCell>
        <mxCell id="aS6O0uANGYLPyMVkly2j-11" value="" style="image;aspect=fixed;perimeter=ellipsePerimeter;html=1;align=center;shadow=0;dashed=0;spacingTop=3;image=img/lib/active_directory/database_server.svg;" parent="ot8v-GuDp5VyXGt-_cL2-2" vertex="1">
          <mxGeometry width="41" height="50" as="geometry" />
        </mxCell>
        <mxCell id="ot8v-GuDp5VyXGt-_cL2-3" value="" style="endArrow=classic;html=1;rounded=0;labelBackgroundColor=default;strokeColor=default;align=center;verticalAlign=middle;fontFamily=Helvetica;fontSize=11;fontColor=default;shape=connector;exitX=1;exitY=0.5;exitDx=0;exitDy=0;" edge="1" parent="1" source="aS6O0uANGYLPyMVkly2j-8">
          <mxGeometry width="50" height="50" relative="1" as="geometry">
            <mxPoint x="507" y="258" as="sourcePoint" />
            <mxPoint x="630" y="370" as="targetPoint" />
          </mxGeometry>
        </mxCell>
        <mxCell id="ot8v-GuDp5VyXGt-_cL2-4" value="" style="endArrow=classic;html=1;rounded=0;labelBackgroundColor=default;strokeColor=default;align=center;verticalAlign=middle;fontFamily=Helvetica;fontSize=11;fontColor=default;shape=connector;exitX=1;exitY=0.5;exitDx=0;exitDy=0;entryX=0;entryY=0.5;entryDx=0;entryDy=0;" edge="1" parent="1" target="aS6O0uANGYLPyMVkly2j-10">
          <mxGeometry width="50" height="50" relative="1" as="geometry">
            <mxPoint x="498" y="343" as="sourcePoint" />
            <mxPoint x="630" y="454" as="targetPoint" />
          </mxGeometry>
        </mxCell>
        <mxCell id="ot8v-GuDp5VyXGt-_cL2-5" value="" style="endArrow=classic;html=1;rounded=0;labelBackgroundColor=default;strokeColor=default;align=center;verticalAlign=middle;fontFamily=Helvetica;fontSize=11;fontColor=default;shape=connector;entryX=0;entryY=0.5;entryDx=0;entryDy=0;" edge="1" parent="1" target="aS6O0uANGYLPyMVkly2j-10">
          <mxGeometry width="50" height="50" relative="1" as="geometry">
            <mxPoint x="500" y="430" as="sourcePoint" />
            <mxPoint x="637" y="302" as="targetPoint" />
          </mxGeometry>
        </mxCell>
      </root>
    </mxGraphModel>
  </diagram>
</mxfile>
